<svg xmlns="http://www.w3.org/2000/svg" viewBox="0 0 48.5 48.5"><defs><style>.cls-1{fill:#fbb03b;fill-rule:evenodd;}.cls-2{fill:none;stroke:#f1ab3e;stroke-miterlimit:11.57;}</style></defs><title>자산 1</title><g id="레이어_2" data-name="레이어 2"><g id="레이어_1-2" data-name="레이어 1"><g id="레이어_2-2" data-name="레이어 2"><g id="Vector_Graphics" data-name="Vector Graphics"><path class="cls-1" d="M37.63,27.47A14.55,14.55,0,0,0,38,24.6H48.5a24.48,24.48,0,0,1-.73,5.59ZM38,23.9a14.1,14.1,0,0,0-.34-2.9l10.11-2.71a24.48,24.48,0,0,1,.73,5.59Zm-.54-3.56a13.91,13.91,0,0,0-1.09-2.69l9-5.22a23.89,23.89,0,0,1,2.16,5.2ZM36,17a13.63,13.63,0,0,0-1.76-2.32l7.37-7.37A25.16,25.16,0,0,1,45,11.78Zm-2.25-2.83a14.86,14.86,0,0,0-2.31-1.79l5.2-9a24.46,24.46,0,0,1,4.47,3.43ZM30.84,12a13.33,13.33,0,0,0-2.7-1.14l2.69-10A24.4,24.4,0,0,1,36,3.05ZM27.5,10.74a14.15,14.15,0,0,0-2.9-.39V0a24.48,24.48,0,0,1,5.59.73Zm-3.6-.4a13.56,13.56,0,0,0-2.91.37L18.31.73A24.48,24.48,0,0,1,23.9,0Zm-3.59.55A13.4,13.4,0,0,0,17.59,12L12.43,3.07A23.89,23.89,0,0,1,17.63.91ZM17,12.36a13.49,13.49,0,0,0-2.33,1.79l-7.3-7.3a24.46,24.46,0,0,1,4.47-3.43Zm-2.83,2.28A13.82,13.82,0,0,0,12.36,17L3.42,11.82A25.16,25.16,0,0,1,6.85,7.35ZM12,17.59a13.2,13.2,0,0,0-1.12,2.72l-10-2.68A23.89,23.89,0,0,1,3,12.43ZM10.71,21a13.56,13.56,0,0,0-.37,2.91H0a24.48,24.48,0,0,1,.73-5.59Zm-.36,3.61a14.15,14.15,0,0,0,.39,2.9L.74,30.2A24.58,24.58,0,0,1,0,24.6Zm.58,3.58a13.33,13.33,0,0,0,1.14,2.7l-9,5.19a24.4,24.4,0,0,1-2.16-5.2Zm1.49,3.3a14.86,14.86,0,0,0,1.79,2.31L6.85,41.15a24.46,24.46,0,0,1-3.43-4.47Zm2.3,2.8A13.57,13.57,0,0,0,17,36l-5.22,9a24.07,24.07,0,0,1-4.47-3.44Zm2.93,2.11a13.91,13.91,0,0,0,2.69,1.09l-2.71,10.1a23.89,23.89,0,0,1-5.2-2.16ZM21,37.66a13.44,13.44,0,0,0,2.9.34V48.5a24.48,24.48,0,0,1-5.59-.73Zm3.6.34a13.87,13.87,0,0,0,2.87-.39l2.72,10.14a24.48,24.48,0,0,1-5.59.73Zm3.55-.57a14.23,14.23,0,0,0,2.67-1.12l5.25,9.1a24.4,24.4,0,0,1-5.2,2.16ZM31.43,36a14,14,0,0,0,2.29-1.77l7.43,7.43a24.07,24.07,0,0,1-4.47,3.44Zm2.79-2.26A14.21,14.21,0,0,0,36,31.43l9.1,5.25a24.46,24.46,0,0,1-3.43,4.47Zm11.21,2.35-9.1-5.25a14.23,14.23,0,0,0,1.12-2.67l10.14,2.72a24.45,24.45,0,0,1-2.16,5.18ZM30.25,27.31a7.19,7.19,0,0,0,.4-1l3.64,1a10.78,10.78,0,0,1-.79,1.89Zm.59-1.66a6.67,6.67,0,0,0,.13-1h3.78a10.47,10.47,0,0,1-.28,2ZM31,23.9a6.67,6.67,0,0,0-.13-1l3.66-1a10.42,10.42,0,0,1,.25,2Zm-.32-1.73a7.19,7.19,0,0,0-.4-1l3.31-1.91a10.9,10.9,0,0,1,.77,1.91Zm-.75-1.59a10.46,10.46,0,0,0-.65-.84L32,17a10,10,0,0,1,1.24,1.64Zm-1.14-1.33A6.71,6.71,0,0,0,28,18.6l1.93-3.35a10.42,10.42,0,0,1,1.62,1.27Zm-1.45-1a7.24,7.24,0,0,0-1-.41l1-3.76a11.06,11.06,0,0,1,1.91.81Zm-1.66-.59a6.69,6.69,0,0,0-1-.14V13.61a11.11,11.11,0,0,1,2.06.29Zm-1.75-.14a6.69,6.69,0,0,0-1,.14l-1-3.79A11.06,11.06,0,0,1,24,13.61Zm-1.73.32a7.24,7.24,0,0,0-1,.41l-2-3.41a10.16,10.16,0,0,1,1.93-.79Zm-1.59.76a6.71,6.71,0,0,0-.84.65L17,16.46a10.65,10.65,0,0,1,1.65-1.27Zm-1.33,1.14a5.89,5.89,0,0,0-.65.84l-3.41-2A10,10,0,0,1,16.46,17Zm-1,1.45a5.09,5.09,0,0,0-.4,1l-3.81-1a10.48,10.48,0,0,1,.8-1.93Zm-.59,1.66a6.69,6.69,0,0,0-.14,1H13.61a11.06,11.06,0,0,1,.26-2.07Zm-.14,1.75a6.69,6.69,0,0,0,.14,1l-3.76,1a11.11,11.11,0,0,1-.29-2.06Zm.33,1.73a6.14,6.14,0,0,0,.4,1l-3.36,1.94a11.06,11.06,0,0,1-.81-1.91Zm.75,1.59a6.41,6.41,0,0,0,.65.83l-2.72,2.73a10.56,10.56,0,0,1-1.28-1.63Zm1.14,1.33a10.46,10.46,0,0,0,.84.65L18.7,33.21A10.7,10.7,0,0,1,17,32Zm1.45,1a7.19,7.19,0,0,0,1,.4l-1,3.68a10.9,10.9,0,0,1-1.91-.77Zm1.66.59a6.67,6.67,0,0,0,1,.13v3.78a9.69,9.69,0,0,1-2-.25ZM24.6,31a6.67,6.67,0,0,0,1-.13l1,3.63a10.47,10.47,0,0,1-2,.28Zm1.73-.32a7.19,7.19,0,0,0,1-.4l1.88,3.25a10.78,10.78,0,0,1-1.89.79Zm1.59-.75a10.46,10.46,0,0,0,.84-.65l2.65,2.65a10.92,10.92,0,0,1-1.62,1.25Zm4,1.5-2.66-2.65a7.42,7.42,0,0,0,.65-.83l3.25,1.87a9.55,9.55,0,0,1-1.25,1.58Z"/></g></g><g id="레이어_2-3" data-name="레이어 2"><g id="svg2191"><path id="path2542" class="cls-2" d="M24.25,19.25l-5,2.22V27l5,2.22,5-2.22V21.47Z"/><path id="path2544" class="cls-2" d="M19.25,21.47l5,2.22,5-2.22"/><path id="path2546" class="cls-2" d="M24.25,29.25V23.69"/></g></g></g></g></svg>