<svg xmlns="http://www.w3.org/2000/svg" viewBox="0 0 48.5 48.5"><defs><style>.cls-1{fill:#fbb03b;fill-rule:evenodd;}</style></defs><title>자산 1</title><g id="레이어_2" data-name="레이어 2"><g id="Vector_Graphics" data-name="Vector Graphics"><path class="cls-1" d="M24.25,48.5A24.25,24.25,0,1,1,48.5,24.25,24.25,24.25,0,0,1,24.25,48.5Zm19-24.25v0H41.33v.24h1.9C43.23,24.4,43.24,24.32,43.24,24.25ZM37.57,10.76l-1.35,1.35.18.16,1.34-1.34A1.37,1.37,0,0,1,37.57,10.76ZM5.48,24.25v.22H7.37v-.24H5.48ZM11,37.63l1.34-1.34a1.37,1.37,0,0,1-.17-.17l-1.34,1.34C10.93,37.51,11,37.57,11,37.63Zm28.8-13.38v0H37.42v0a1.62,1.62,0,0,1,0,.22h2.42C39.83,24.4,39.84,24.32,39.84,24.25ZM35.16,13.17l-1.69,1.69.17.16,1.7-1.68ZM24.68,37.41v2.32a15.42,15.42,0,0,0,3.14-.39l-.61-2.26A13.07,13.07,0,0,1,24.68,37.41ZM28,39.29l.24-.06L27.66,37l-.23.06Zm7.8-8.76,2.08,1.2a15.94,15.94,0,0,0,1.25-2.94l-2.33-.63A13.81,13.81,0,0,1,35.83,30.53Zm-.18.31-.12.21,2.08,1.2.12-.21Zm-.26.43a13.56,13.56,0,0,1-1.57,2L35.51,35a16.44,16.44,0,0,0,2-2.51Zm-1.84,2.3-.17.17,1.69,1.68.17-.16Zm-.35.34a13.29,13.29,0,0,1-2,1.55l1.18,2a15.77,15.77,0,0,0,2.54-1.91Zm-2.37,1.74-.21.12,1.19,2,.21-.11Zm-.42.24a13.29,13.29,0,0,1-2.36,1l.61,2.27a15.74,15.74,0,0,0,2.94-1.19ZM27.26,11.43l.61-2.26a15.22,15.22,0,0,0-3.19-.4v2.32A12.83,12.83,0,0,1,27.26,11.43Zm.22.05.24.06.6-2.26-.23-.06Zm.62.17a14.11,14.11,0,0,1,2.4,1l1.18-2a14.84,14.84,0,0,0-3-1.22Zm2.61,1.12.2.12,1.19-2.05-.21-.12Zm.54.32a13.71,13.71,0,0,1,2,1.59L35,13a15.23,15.23,0,0,0-2.55-2Zm2.66,2.21a13.12,13.12,0,0,1,1.56,2.06l2.09-1.2a16.29,16.29,0,0,0-2-2.55Zm1.7,2.29.12.21,2.09-1.2a2.39,2.39,0,0,0-.13-.21Zm.29.52a13.28,13.28,0,0,1,1,2.4l2.33-.63a15.45,15.45,0,0,0-1.22-3ZM37,20.79,37,21l2.33-.63-.06-.23Zm.14.56a13.38,13.38,0,0,1,.31,2.56h2.42a15.3,15.3,0,0,0-.4-3.19Zm.31,3.42a13.28,13.28,0,0,1-.36,2.55l2.34.63a15.73,15.73,0,0,0,.44-3.18ZM37,27.65l-.06.24,2.33.63a2.17,2.17,0,0,1,.07-.24Zm3.72,1.26,1.84.49.06-.24-1.84-.49C40.73,28.74,40.71,28.83,40.69,28.91Zm-.08.26a16.7,16.7,0,0,1-1.4,3.31l1.65,1a19,19,0,0,0,1.59-3.76ZM39,32.79l-.12.21,1.64,1a2.39,2.39,0,0,0,.13-.21Zm-.26.44a17.66,17.66,0,0,1-2.2,2.82l1.34,1.34a19,19,0,0,0,2.51-3.21ZM36.3,36.32l-.17.16,1.34,1.35c.06-.06.12-.11.17-.17Zm-.35.33a16.7,16.7,0,0,1-2.85,2.16l.95,1.64A18.51,18.51,0,0,0,37.29,38ZM32.77,39l-.22.12,1,1.65.2-.12Zm-.42.24a17.26,17.26,0,0,1-3.3,1.33l.49,1.84a19,19,0,0,0,3.76-1.53Zm-3.7,1.44-.23.06.49,1.84.23-.06Zm-.44.11a16.48,16.48,0,0,1-3.53.44v1.89a19,19,0,0,0,4-.49Zm-3.93-3.37H24v2.32h.24ZM8.87,24.25v.22h2.21v-.24H8.87Zm4.57,11L15,33.65l-.17-.17-1.59,1.58Zm4.64.66-1.13,2a15.75,15.75,0,0,0,2.9,1.22l.6-2.21A13.7,13.7,0,0,1,18.08,35.89Zm-.34-.19-.2-.12-1.14,2,.21.12Zm-.41-.24a13.44,13.44,0,0,1-2-1.55L13.71,35.5a15.57,15.57,0,0,0,2.49,1.92ZM14.68,33.3a13.56,13.56,0,0,1-1.57-2l-1.93,1.12a15,15,0,0,0,1.92,2.49ZM12.92,31l-.12-.21-1.93,1.12a2.26,2.26,0,0,0,.13.2Zm-.25-.44a13.06,13.06,0,0,1-1-2.37l-2.14.58a15.05,15.05,0,0,0,1.21,2.9Zm-1.09-2.69-.06-.23-2.15.57a2.17,2.17,0,0,0,.07.24Zm-.14-.52a14.11,14.11,0,0,1-.35-2.55H8.88A15.33,15.33,0,0,0,9.3,27.9Zm-.35-3.41a13.38,13.38,0,0,1,.31-2.56l-2.14-.58a15.5,15.5,0,0,0-.39,3.14Zm.38-2.83.06-.25-2.14-.57a2.1,2.1,0,0,0-.06.24Zm.15-.57a13.28,13.28,0,0,1,1-2.4L10.67,17a14.64,14.64,0,0,0-1.19,2.93Zm1.1-2.63.12-.21-1.93-1.11-.12.21Zm.31-.52a13.12,13.12,0,0,1,1.56-2.06L13,13.71a15.83,15.83,0,0,0-1.92,2.54Zm1.73-2.24.17-.18-1.58-1.58-.17.17Zm.44-.44a14.4,14.4,0,0,1,2.05-1.59l-1.13-2a16.44,16.44,0,0,0-2.51,2ZM17.46,13l.2-.13-1.13-2-.21.13Zm.54-.32a14.11,14.11,0,0,1,2.4-1l-.59-2.21a15.65,15.65,0,0,0-2.94,1.25Zm2.61-1.06.23-.06-.59-2.22L20,9.38Zm.06,25.33-.6,2.21.24.07L20.9,37Zm3.15.49a13.07,13.07,0,0,1-2.53-.33l-.6,2.22a15.33,15.33,0,0,0,3.13.42ZM20.3,40.75l-.49,1.83a19.57,19.57,0,0,0,4,.54v-1.9A17,17,0,0,1,20.3,40.75Zm-.38-.1-.23-.07-.49,1.83.23.07Zm-.46-.13a17,17,0,0,1-3.26-1.37l-.95,1.64A18.6,18.6,0,0,0,19,42.35ZM15.86,39l-.21-.12-.94,1.64.21.12Zm-.41-.25a16.79,16.79,0,0,1-2.8-2.15L11.31,37.9a19,19,0,0,0,3.19,2.45ZM12,35.94a16.33,16.33,0,0,1-2.16-2.8l-1.64,1a19.09,19.09,0,0,0,2.46,3.19ZM9.7,32.83l-.13-.21-1.63,1,.12.21Zm-.26-.44a16.82,16.82,0,0,1-1.36-3.27l-1.83.49a18.51,18.51,0,0,0,1.56,3.72ZM8,28.8c0-.07,0-.15-.07-.23l-1.82.49.06.23Zm-.14-.51a17,17,0,0,1-.47-3.52H5.49a18.28,18.28,0,0,0,.54,4Zm-.48-4.38a17.66,17.66,0,0,1,.44-3.52L6,19.9a19.56,19.56,0,0,0-.5,4Zm.51-3.8.06-.24-1.83-.49-.06.24ZM8,19.55a16.42,16.42,0,0,1,1.34-3.3L7.73,15.3A19,19,0,0,0,6.2,19.06ZM9.49,16l.12-.21L8,14.86l-.11.21Zm.3-.52A16.7,16.7,0,0,1,12,12.65l-1.34-1.33a18.44,18.44,0,0,0-2.45,3.23Zm2.33-3,.17-.17L11,11l-.17.18Zm.43-.44a18.25,18.25,0,0,1,2.82-2.2l-.94-1.64a18.62,18.62,0,0,0-3.21,2.51Zm3-2.32.21-.13L14.84,8l-.21.12Zm.55-.32A17.88,17.88,0,0,1,19.42,8l-.49-1.82a18.92,18.92,0,0,0-3.76,1.58Zm3.51-1.46.23-.06L19.37,6l-.23.06Zm.63-.17a17.26,17.26,0,0,1,3.56-.49V5.38a19.19,19.19,0,0,0-4.05.55Zm.39,1.45.59,2.22a12.83,12.83,0,0,1,2.58-.34V8.77A15.73,15.73,0,0,0,20.65,9.21ZM24,11.08h.24V8.77H24Zm.64-3.81a16.77,16.77,0,0,1,3.57.45l.5-1.84a18.81,18.81,0,0,0-4.07-.5Zm3.8.5.23.06L29.2,6,29,5.94Zm.61.17a16.86,16.86,0,0,1,3.34,1.37l1-1.65A19.12,19.12,0,0,0,29.59,6.1Zm3.55,1.48.21.12L33.8,7.9l-.21-.12Zm.54.32A16.94,16.94,0,0,1,36,11.93l1.35-1.34a19.44,19.44,0,0,0-3.26-2.5Zm3.48,2.81a16.94,16.94,0,0,1,2.19,2.86l1.65-.95A18.44,18.44,0,0,0,38,11.2ZM39,15.64a2.39,2.39,0,0,0,.13.21l1.64-.95-.12-.21Zm.3.52a16.86,16.86,0,0,1,1.37,3.34L42.5,19a18.57,18.57,0,0,0-1.57-3.79Zm1.45,3.62.06.23,1.84-.49-.06-.23Zm.14.55a16.87,16.87,0,0,1,.45,3.58h1.9a18.82,18.82,0,0,0-.51-4.07Zm.45,4.44a17.45,17.45,0,0,1-.49,3.57l1.84.49a19.29,19.29,0,0,0,.55-4.06Zm-17,18.36v-1.9H24v1.89ZM24,5.38V7.27h.24V5.37Z"/></g></g></svg>