<svg xmlns="http://www.w3.org/2000/svg" viewBox="0 0 48.5 48.5"><defs><style>.cls-1{fill:#fbb03b;fill-rule:evenodd;}</style></defs><title>자산 4</title><g id="레이어_2" data-name="레이어 2"><g id="Vector_Graphics" data-name="Vector Graphics"><path class="cls-1" d="M24.25,48.5A24.25,24.25,0,1,1,48.5,24.25,24.25,24.25,0,0,1,24.25,48.5ZM47.88,24.33v-.2H39.71v0c0,.08,0,.16,0,.24h8.17ZM7.45,7.72,13,13.29l.18-.18L7.62,7.54ZM.62,24.33v.06h8v-.26h-8ZM24.12,36H24v1.38h.25V36Zm.16-4V28.72H24v3.22h.25ZM22,16.67l.82,3,.24-.06-.81-3Zm1.82-4.33V10.83a13.12,13.12,0,0,0-2.6.32l.39,1.46A11.52,11.52,0,0,1,23.8,12.34Zm-2,4.39a8,8,0,0,0-1.09.44l1.58,2.74.33-.13Zm-1,18.76a12.27,12.27,0,0,1-2-.81L18,35.9a13.11,13.11,0,0,0,2.37.93Zm-.13,1.41.24.06.36-1.34L21,35.56ZM20,26.18c0-.09-.09-.19-.13-.29l-3.1.83a7.71,7.71,0,0,0,.46,1.06ZM17.37,28l.12.21,2.78-1.6a2.39,2.39,0,0,1-.13-.21Zm2.38-2.47a1.55,1.55,0,0,1-.07-.23l-3.09.82a2.17,2.17,0,0,1,.07.24ZM19.61,25l-.06-.33h-3.2a8.61,8.61,0,0,0,.17,1.15Zm-.08-.64a2.26,2.26,0,0,1,0-.26H16.33v0c0,.08,0,.16,0,.24Zm0-.59,0-.34-3.08-.83a8.91,8.91,0,0,0-.14,1.17Zm.09-.63a1.14,1.14,0,0,1,.06-.25l-3.07-.82-.06.25Zm.16-.58c0-.11.08-.22.13-.33l-2.75-1.59a7.05,7.05,0,0,0-.45,1.1ZM20,22l.12-.21-2.74-1.59-.13.22Zm.32-.53.21-.28L18.32,19a8.23,8.23,0,0,0-.72.93Zm.13,5.46L17.7,28.55a6.85,6.85,0,0,0,.71.9l2.27-2.27C20.61,27.11,20.55,27,20.48,26.94Zm-2.09,7.55-.22-.12-.7,1.21.22.13ZM18,34.24a11.82,11.82,0,0,1-1.76-1.31l-1,1a13.41,13.41,0,0,0,2.06,1.53Zm-2-1.58-.18-.17-1,1,.18.18Zm-.36-.36a11.39,11.39,0,0,1-1.36-1.73L13,31.29a13.59,13.59,0,0,0,1.61,2Zm-1.56-2c0-.07-.09-.14-.13-.22l-1.24.72a2.53,2.53,0,0,0,.13.22Zm-.26-.46a10.27,10.27,0,0,1-.87-2l-1.41.38a13.26,13.26,0,0,0,1,2.38Zm-1-2.36c0-.08,0-.17-.07-.24l-1.41.37c0,.08.05.16.07.24Zm-.15-.54a11.43,11.43,0,0,1-.3-2.2H10.84a13.71,13.71,0,0,0,.37,2.58Zm-.31-2.51a1.93,1.93,0,0,1,0-.24v0H10.83v.26Zm0-.59a11.42,11.42,0,0,1,.27-2.21l-1.43-.39a13.12,13.12,0,0,0-.32,2.6Zm.34-2.49.06-.26-1.43-.38a2.33,2.33,0,0,0-.07.25Zm.16-.59a11.7,11.7,0,0,1,.85-2.07l-1.3-.75a13.18,13.18,0,0,0-1,2.43Zm1-2.31.12-.21-1.3-.75-.12.21Zm.32-.53a11.8,11.8,0,0,1,1.36-1.78L14.4,15a13.32,13.32,0,0,0-1.59,2.08Zm1.54-2,.17-.18-1.07-1.07-.17.18Zm.46-.45a11.66,11.66,0,0,1,1.77-1.35l-.76-1.31A13.47,13.47,0,0,0,15,14.4Zm2-1.48.22-.13-.76-1.31-.22.13Zm.57-.32a12.36,12.36,0,0,1,2.06-.84l-.39-1.46a13.18,13.18,0,0,0-2.43,1Zm2.28-.9.24-.06-.39-1.47-.24.07Zm-.62,4.59-.21.12,1.58,2.74.21-.13Zm-.42.25a7.31,7.31,0,0,0-.94.72l2.24,2.23.28-.21Zm-1.23,1-.17.18L20.73,21l.18-.18Zm2.19,8.78-2.27,2.26.18.18L21,27.54Zm-1.8,2.7a8.73,8.73,0,0,0,.92.68L21.58,28l-.24-.17Zm1.13.8.22.13L22,28.21l-.22-.12Zm.57.31a7.5,7.5,0,0,0,1.06.41l.83-3.11a1.48,1.48,0,0,1-.27-.1Zm1.28.48.25.06.83-3.1-.24-.06Zm.65.15a6.73,6.73,0,0,0,1.11.12V28.71l-.28,0Zm-1.05,3.9-.36,1.34a13.15,13.15,0,0,0,2.52.3V36A11.81,11.81,0,0,1,21.64,35.71Zm-1,3.62-2.13,7.94A24,24,0,0,0,23.8,48V39.71A15.4,15.4,0,0,1,20.67,39.33Zm-.39-.1L20,39.16,17.91,47.1l.24.07Zm-.48-.13a15.55,15.55,0,0,1-2.92-1.19L12.79,45a23.69,23.69,0,0,0,4.89,2Zm-3.27-1.38-.22-.12-4.09,7.08.22.12Zm-.43-.25a15.26,15.26,0,0,1-2.53-1.91L7.82,41.32A24,24,0,0,0,12,44.55Zm-2.81-2.18-.18-.17L7.36,40.86l.18.18Zm-.36-.36a15.89,15.89,0,0,1-2-2.5l-7,4a24.32,24.32,0,0,0,3.21,4.2Zm-2.15-2.81-.13-.22-7,4,.12.22Zm-.26-.46a16.14,16.14,0,0,1-1.25-2.93L1.52,30.81a23,23,0,0,0,2,4.89ZM9.18,28.4a2.17,2.17,0,0,1-.07-.24L1.36,30.23c0,.08,0,.16.07.25ZM9,27.86A15.73,15.73,0,0,1,8.6,24.7h-8a23.87,23.87,0,0,0,.67,5.24ZM8.6,23.8A15.71,15.71,0,0,1,9,20.63L1.33,18.57A24.33,24.33,0,0,0,.62,23.8Zm.46-3.46c0-.08,0-.16.07-.25L1.47,18a2.33,2.33,0,0,0-.07.25Zm.16-.58a16.12,16.12,0,0,1,1.22-3L3.6,12.85a23.44,23.44,0,0,0-2,4.86Zm1.35-3.21.12-.21L3.86,12.39a1.59,1.59,0,0,0-.13.22Zm.32-.53a15.11,15.11,0,0,1,1.95-2.55L7.27,7.9a23.78,23.78,0,0,0-3.22,4.17Zm2.58-3.18A15.11,15.11,0,0,1,16,10.89L12.08,4.07A24.12,24.12,0,0,0,7.9,7.27Zm2.76-2.08.21-.13L12.51,3.82,12.29,4Zm.56-.32a16.12,16.12,0,0,1,3-1.22l-2-7.6a24.11,24.11,0,0,0-4.86,2ZM20,9.16l.24-.07-2-7.6-.24.07ZM20.63,9A15.71,15.71,0,0,1,23.8,8.6V.71a23.53,23.53,0,0,0-5.21.68Zm3.17,7.39a7.49,7.49,0,0,0-1.16.13l.82,3.06.34,0ZM23.42,21l-.24.07.59,2.22-1.15-2-.21.13,1.17,2-1.65-1.65-.17.18,1.64,1.64-2-1.15-.11.22,2,1.14-2.19-.59-.06.26,2.19.58H21v.26h2.23L21.06,25a1.55,1.55,0,0,0,.07.23l2.13-.56-1.9,1.09.13.21,1.9-1.09-1.54,1.53.18.18L23.58,25l-1.09,1.89.22.12,1.08-1.88-.56,2.09.25.06L24,25.23v2.12h.25V25.22l.55,2.06.24-.06L24.5,25.1,25.6,27a.94.94,0,0,0,.22-.12L24.75,25l1.53,1.53.18-.18-1.54-1.53,1.89,1.09a2.39,2.39,0,0,0,.13-.21l-1.88-1.09,2.12.57.07-.25-2.11-.56h2.2a1.93,1.93,0,0,0,0-.24v0H25.09l2.2-.59a2,2,0,0,0-.05-.24L25,23.89l2-1.15-.12-.22-2,1.15L26.55,22l-.18-.18-1.62,1.63,1.15-2-.21-.13-1.16,2,.6-2.25L24.89,21l-.61,2.29V21H24v2.36ZM41,41,35.2,35.12l-.18.17,5.84,5.85Zm-2-12.28a16,16,0,0,1-1.21,2.89L45,35.7a24.06,24.06,0,0,0,2-4.89Zm8,1.85.06-.25L39.2,28.15a2.33,2.33,0,0,0-.07.25ZM37.65,31.9l-.12.22,7.14,4.12.12-.22Zm-.27.45a15.38,15.38,0,0,1-1.91,2.49l5.84,5.84a23.83,23.83,0,0,0,3.21-4.2ZM25.84,16.56a8.46,8.46,0,0,0-1.14-.17v3.17l.33.05Zm-.58,3.1.24.07.82-3.05-.24-.06Zm1.63-7,.39-1.44a12.35,12.35,0,0,0-2.58-.37v1.5A12.16,12.16,0,0,1,26.89,12.66Zm.23.06.24.06.39-1.44-.24-.06Zm-.41,4.09-.82,3.06.29.14,1.58-2.74A8.15,8.15,0,0,0,26.71,16.81Zm.13,18.85a12.54,12.54,0,0,1-2.14.3v1.38A13,13,0,0,0,27.2,37Zm.57,1.27.25-.06-.36-1.33-.24.06Zm-1.15-5.29-.84-3.1-.24.06L26,31.71Zm.4-.12a7.65,7.65,0,0,0,1-.44L26.07,28.3l-.24.1ZM27.89,31l.22-.13L26.5,28.06l-.21.13Zm7.66-3.8a1.82,1.82,0,0,1-.07.25l1.35.36c0-.08,0-.16.07-.25Zm1.43,0a13,13,0,0,0,.35-2.5h-1.4a12.68,12.68,0,0,1-.3,2.14Zm-1.58.5a12.46,12.46,0,0,1-.83,2l1.19.69a12.81,12.81,0,0,0,1-2.32Zm-1,2.31-.13.22,1.2.69.12-.21Zm-.27.45a12.17,12.17,0,0,1-1.32,1.71l1,1a13.4,13.4,0,0,0,1.53-2Zm-1.58,2-.18.18,1,1,.18-.17Zm-.37.36a11.53,11.53,0,0,1-1.7,1.32l.69,1.18a13.4,13.4,0,0,0,2-1.53Zm-3.6-7.51c0,.09-.05.17-.07.25l3.08.83a2.33,2.33,0,0,0,.07-.25Zm3.16.49a8,8,0,0,0,.16-1.09h-3.2c0,.09,0,.18,0,.26Zm-3.33,0a2.56,2.56,0,0,1-.11.24l2.78,1.6a9,9,0,0,0,.43-1Zm-.28.57a2.39,2.39,0,0,1-.13.21l2.78,1.6.12-.21Zm-.28.44-.16.21L30,29.32a9.16,9.16,0,0,0,.67-.87ZM28,21.59,30.71,20a7.51,7.51,0,0,0-.67-.9l-2.25,2.24A2.2,2.2,0,0,1,28,21.59Zm.15.23.12.22L31,20.46a2.39,2.39,0,0,0-.12-.22Zm.27.56c0,.09.07.18.1.27l3.07-.82a7.25,7.25,0,0,0-.41-1Zm.19.56.06.25,3.07-.83-.06-.24Zm.12.58c0,.1,0,.19,0,.28H31.9a7.87,7.87,0,0,0-.13-1.1Zm0,.61v.26H31.9a1.93,1.93,0,0,0,0-.24v0Zm1.4,10.2-.21.13.68,1.19.22-.13Zm-.43.25a11.54,11.54,0,0,1-2,.84l.35,1.32a13.2,13.2,0,0,0,2.32-1Zm-1.24-3.95a9.28,9.28,0,0,0,.87-.68L27,27.68a1.56,1.56,0,0,1-.2.16Zm1.06-.85.17-.18-2.26-2.26-.18.17Zm-2-8.74,2.24-2.24-.18-.17-2.23,2.23Zm1.88-2.59a7.49,7.49,0,0,0-.89-.71l-1.59,2.74.24.2Zm-1.23-.93L28,17.39,26.4,20.12l.21.13Zm1.59-3.74.74-1.29a14,14,0,0,0-2.38-1l-.39,1.45A11.08,11.08,0,0,1,29.78,13.78Zm.21.12.22.12L31,12.74l-.22-.13Zm.56.34a12.47,12.47,0,0,1,1.72,1.35l1-1a13,13,0,0,0-2-1.61Zm1.9,1.53.18.18,1-1-.17-.18Zm.45.47A12.31,12.31,0,0,1,34.2,18l1.26-.72a14.66,14.66,0,0,0-1.53-2.06Zm1.45,2,.12.22,1.25-.72-.12-.22Zm.29.55a11.73,11.73,0,0,1,.81,2l1.38-.37A13.44,13.44,0,0,0,35.89,18Zm.89,2.31c0,.08,0,.16.07.24L37,21a2.1,2.1,0,0,0-.06-.24Zm.14.57a11.81,11.81,0,0,1,.26,2.15h1.42a14,14,0,0,0-.3-2.52Zm.27,2.48v.26h1.41v-.26Zm-1.1,11.34a15.38,15.38,0,0,1-2.49,1.91l4.14,7.17a24,24,0,0,0,4.19-3.23ZM32,37.59l-.22.13,4.14,7.16.21-.12Zm-.44.25a16,16,0,0,1-2.89,1.21l2.14,8a23.69,23.69,0,0,0,4.89-2Zm-3.3,1.32-.24.07,2.14,8,.24-.07Zm-.46.12a15.86,15.86,0,0,1-3.11.43V48A23.81,23.81,0,0,0,30,47.27ZM24.7,31.92a8.1,8.1,0,0,0,1.1-.16L25,28.65l-.26,0Zm-.42-12.4V16.37H24v3.15h.25ZM24,12.34h.25V10.83H24ZM24.7,8.6A15.73,15.73,0,0,1,27.86,9l2.05-7.65A23.53,23.53,0,0,0,24.7.71Zm3.39.49.24.07,2.05-7.65-.24-.07Zm.64.18a16.14,16.14,0,0,1,2.93,1.25l4-6.9a24.36,24.36,0,0,0-4.86-2Zm3.14,1.37.22.12,4-6.89-.22-.12Zm.56.33a15.89,15.89,0,0,1,2.5,2l5.66-5.66a23.68,23.68,0,0,0-4.17-3.2Zm2.69,2.14.17.18L41,7.62l-.18-.17Zm.44.46a15.26,15.26,0,0,1,1.91,2.53l7-4A23.78,23.78,0,0,0,41.23,7.9Zm2,2.77.13.21,7-4-.13-.21Zm.3.54A15.55,15.55,0,0,1,39.1,19.8l7.84-2.09a23.44,23.44,0,0,0-2-4.86Zm1.27,3.22.06.24,7.84-2.1L47,18Zm.14.57a14.73,14.73,0,0,1,.39,3.13h8.16a23.71,23.71,0,0,0-.7-5.23Zm.39,4a15.86,15.86,0,0,1-.43,3.11l7.93,2.13a23.28,23.28,0,0,0,.66-5.24ZM24.28,48V39.71H24V48h.25ZM24,.71V8.59h.25V.7H24Z"/></g></g></svg>