<?xml version="1.0" encoding="utf-8"?>
<!-- Generator: Adobe Illustrator 24.0.2, SVG Export Plug-In . SVG Version: 6.00 Build 0)  -->
<svg version="1.1" id="레이어_1" xmlns="http://www.w3.org/2000/svg" xmlns:xlink="http://www.w3.org/1999/xlink" x="0px"
	 y="0px" viewBox="0 0 48.5 48.5" style="enable-background:new 0 0 48.5 48.5;" xml:space="preserve">
<style type="text/css">
	.st0{fill-rule:evenodd;clip-rule:evenodd;fill:#831B1F;}
</style>
<title>자산 4</title>
<g id="레이어_2_1_">
	<g id="Vector_Graphics">
		<path class="st0" d="M24.3,48.5C10.9,48.5,0,37.6,0,24.3S10.9,0,24.3,0s24.3,10.9,24.3,24.3S37.6,48.5,24.3,48.5L24.3,48.5z
			 M47.9,24.3v-0.2h-8.2l0,0c0,0.1,0,0.2,0,0.2L47.9,24.3L47.9,24.3z M7.4,7.7l5.6,5.6l0.2-0.2L7.6,7.5L7.4,7.7z M0.6,24.3L0.6,24.3
			l8,0.1v-0.3h-8L0.6,24.3z M24.1,36H24v1.4h0.3V36H24.1z M24.3,32v-3.3H24v3.2L24.3,32L24.3,32z M22,16.7l0.8,3l0.2-0.1l-0.8-3
			L22,16.7z M23.8,12.3v-1.5c-0.9,0-1.7,0.1-2.6,0.3l0.4,1.5C22.3,12.5,23.1,12.4,23.8,12.3L23.8,12.3z M21.8,16.7
			c-0.4,0.1-0.7,0.3-1.1,0.4l1.6,2.7l0.3-0.1L21.8,16.7z M20.8,35.5c-0.7-0.2-1.4-0.5-2-0.8L18,35.9c0.8,0.4,1.6,0.7,2.4,0.9
			L20.8,35.5z M20.7,36.9l0.2,0.1l0.4-1.3L21,35.6L20.7,36.9z M20,26.2c0-0.1-0.1-0.2-0.1-0.3l-3.1,0.8c0.1,0.4,0.3,0.7,0.5,1.1
			L20,26.2z M17.4,28l0.1,0.2l2.8-1.6c0-0.1-0.1-0.1-0.1-0.2L17.4,28z M19.8,25.5c0-0.1-0.1-0.2-0.1-0.2l-3.1,0.8
			c0,0.1,0.1,0.2,0.1,0.2L19.8,25.5z M19.6,25l-0.1-0.3h-3.2c0,0.4,0.1,0.8,0.2,1.1L19.6,25z M19.5,24.4c0-0.1,0-0.2,0-0.3h-3.2l0,0
			c0,0.1,0,0.2,0,0.2L19.5,24.4z M19.5,23.8v-0.3l-3.1-0.8c-0.1,0.4-0.1,0.8-0.1,1.2H19.5z M19.6,23.1c0-0.1,0-0.2,0.1-0.3l-3.1-0.8
			l-0.1,0.3L19.6,23.1z M19.8,22.6c0-0.1,0.1-0.2,0.1-0.3l-2.8-1.6c-0.2,0.4-0.3,0.7-0.5,1.1L19.8,22.6z M20,22l0.1-0.2l-2.7-1.6
			l-0.1,0.2L20,22z M20.3,21.5l0.2-0.3L18.3,19c-0.3,0.3-0.5,0.6-0.7,0.9L20.3,21.5z M20.4,26.9l-2.7,1.6c0.2,0.3,0.4,0.6,0.7,0.9
			l2.3-2.3C20.6,27.1,20.5,27,20.4,26.9L20.4,26.9z M18.4,34.5l-0.2-0.1l-0.7,1.2l0.2,0.1L18.4,34.5z M18,34.2
			c-0.6-0.4-1.2-0.8-1.8-1.3l-1,1c0.6,0.6,1.3,1.1,2.1,1.5L18,34.2z M16,32.7l-0.2-0.2l-1,1l0.2,0.2L16,32.7z M15.6,32.3
			c-0.5-0.5-1-1.1-1.4-1.7L13,31.3c0.5,0.7,1,1.4,1.6,2L15.6,32.3z M14.1,30.3c0-0.1-0.1-0.1-0.1-0.2l-1.2,0.7
			c0,0.1,0.1,0.1,0.1,0.2L14.1,30.3z M13.8,29.8c-0.4-0.6-0.7-1.3-0.9-2l-1.4,0.4c0.3,0.8,0.6,1.6,1,2.4L13.8,29.8z M12.8,27.5
			c0-0.1,0-0.2-0.1-0.2l-1.4,0.4c0,0.1,0.1,0.2,0.1,0.2L12.8,27.5z M12.7,26.9c-0.2-0.7-0.3-1.5-0.3-2.2h-1.5c0,0.9,0.2,1.7,0.4,2.6
			L12.7,26.9z M12.4,24.4c0-0.1,0-0.2,0-0.2l0,0h-1.5v0.3L12.4,24.4z M12.4,23.8c0-0.7,0.1-1.5,0.3-2.2l-1.4-0.4
			c-0.2,0.9-0.3,1.7-0.3,2.6H12.4z M12.7,21.3l0.1-0.3l-1.4-0.4c0,0.1-0.1,0.2-0.1,0.3L12.7,21.3z M12.9,20.8
			c0.2-0.7,0.5-1.4,0.9-2.1l-1.3-0.8c-0.4,0.8-0.7,1.6-1,2.4L12.9,20.8z M13.9,18.4l0.1-0.2l-1.3-0.8l-0.1,0.2L13.9,18.4z
			 M14.2,17.9c0.4-0.6,0.9-1.2,1.4-1.8L14.4,15c-0.6,0.6-1.1,1.3-1.6,2.1L14.2,17.9z M15.7,15.9l0.2-0.2l-1.1-1.1l-0.2,0.2
			L15.7,15.9z M16.2,15.5c0.5-0.5,1.1-1,1.8-1.4l-0.8-1.3c-0.8,0.5-1.5,1-2.2,1.6L16.2,15.5z M18.2,14l0.2-0.1l-0.8-1.3l-0.2,0.1
			L18.2,14z M18.7,13.7c0.7-0.3,1.3-0.6,2.1-0.8l-0.4-1.5c-0.8,0.3-1.7,0.6-2.4,1L18.7,13.7z M21,12.8l0.2-0.1l-0.4-1.5l-0.2,0.1
			L21,12.8z M20.4,17.4l-0.2,0.1l1.6,2.7l0.2-0.1L20.4,17.4z M20,17.6c-0.3,0.2-0.6,0.5-0.9,0.7l2.2,2.2l0.3-0.2L20,17.6z
			 M18.8,18.6l-0.2,0.2l2.1,2.2l0.2-0.2L18.8,18.6z M20.9,27.4l-2.3,2.3l0.2,0.2l2.1-2.3L20.9,27.4z M19.1,30.1
			c0.3,0.2,0.6,0.5,0.9,0.7l1.5-2.8l-0.2-0.2L19.1,30.1z M20.3,30.9l0.2,0.1l1.5-2.8l-0.2-0.1L20.3,30.9z M20.8,31.2
			c0.3,0.2,0.7,0.3,1.1,0.4l0.8-3.1c-0.1,0-0.2-0.1-0.3-0.1L20.8,31.2z M22.1,31.7l0.3,0.1l0.8-3.1L23,28.6L22.1,31.7z M22.8,31.8
			c0.4,0.1,0.7,0.1,1.1,0.1v-3.2h-0.3L22.8,31.8z M21.7,35.7l-0.4,1.3c0.8,0.2,1.7,0.3,2.5,0.3V36C23.1,36,22.4,35.9,21.7,35.7
			L21.7,35.7z M20.7,39.3l-2.1,7.9c1.7,0.4,3.4,0.7,5.2,0.7v-8.3C22.7,39.7,21.7,39.6,20.7,39.3L20.7,39.3z M20.3,39.3L20,39.2
			l-2.1,7.9l0.2,0.1L20.3,39.3z M19.9,39.1c-1-0.3-2-0.7-2.9-1.2L12.8,45c1.6,0.8,3.2,1.5,4.9,2L19.9,39.1z M16.6,37.7l-0.2-0.1
			l-4.1,7.1l0.2,0.1L16.6,37.7z M16.2,37.5c-0.9-0.5-1.8-1.2-2.5-1.9l-5.8,5.7c1.3,1.2,2.7,2.3,4.2,3.2L16.2,37.5z M13.4,35.3
			l-0.2-0.2l-5.8,5.7L7.5,41L13.4,35.3z M13,34.9c-0.7-0.8-1.4-1.6-2-2.5l-7,4c0.9,1.5,2,2.9,3.2,4.2L13,34.9z M10.8,32.1l-0.1-0.2
			l-7,4l0.1,0.2L10.8,32.1z M10.6,31.7c-0.5-0.9-0.9-1.9-1.3-2.9l-7.8,2.1c0.5,1.7,1.1,3.3,2,4.9L10.6,31.7z M9.2,28.4
			c0-0.1-0.1-0.2-0.1-0.2l-7.8,2.1c0,0.1,0,0.2,0.1,0.3L9.2,28.4z M9,27.9c-0.2-1-0.4-2.1-0.4-3.2h-8c0,1.8,0.3,3.5,0.7,5.2L9,27.9z
			 M8.6,23.8c0-1.1,0.2-2.1,0.4-3.2l-7.7-2.1c-0.4,1.7-0.7,3.5-0.7,5.2H8.6z M9.1,20.3c0-0.1,0-0.2,0.1-0.3L1.5,18
			c0,0.1-0.1,0.2-0.1,0.3L9.1,20.3z M9.2,19.8c0.3-1,0.7-2,1.2-3l-6.8-3.9c-0.8,1.5-1.5,3.2-2,4.9L9.2,19.8z M10.6,16.5l0.1-0.2
			l-6.8-3.9c0,0.1-0.1,0.1-0.1,0.2L10.6,16.5z M10.9,16c0.6-0.9,1.2-1.8,1.9-2.6L7.3,7.9C6,9.2,5,10.6,4.1,12.1L10.9,16z M13.5,12.8
			c0.8-0.7,1.6-1.4,2.5-1.9l-3.9-6.8c-1.5,0.9-2.9,2-4.2,3.2L13.5,12.8z M16.2,10.8l0.2-0.1l-3.9-6.8L12.3,4L16.2,10.8z M16.8,10.4
			c1-0.5,2-0.9,3-1.2l-2-7.6c-1.7,0.5-3.3,1.2-4.9,2L16.8,10.4z M20,9.2l0.2-0.1l-2-7.6L18,1.6L20,9.2z M20.6,9
			c1-0.2,2.1-0.4,3.2-0.4V0.7c-1.8,0-3.5,0.3-5.2,0.7L20.6,9z M23.8,16.4c-0.4,0-0.8,0.1-1.2,0.1l0.8,3.1h0.3V16.4z M23.4,21
			l-0.2,0.1l0.6,2.2l-1.1-2l-0.2,0.1l1.2,2l-1.6-1.6l-0.2,0.2l1.6,1.6l-2-1.1l-0.1,0.2l2,1.1l-2.2-0.6L21,23.5l2.2,0.6H21v0.3h2.2
			L21.1,25c0,0.1,0,0.2,0.1,0.2l2.1-0.6l-1.9,1.1l0.1,0.2l1.9-1.1l-1.5,1.5l0.2,0.2l1.6-1.6l-1.1,1.9l0.2,0.1l1.1-1.9l-0.6,2.1
			l0.3,0.1l0.5-2.1v2.1h0.3v-2.1l0.5,2.1l0.2-0.1l-0.5-2.1l1.1,1.9c0.1,0,0.2-0.1,0.2-0.1L24.8,25l1.5,1.5l0.2-0.2l-1.5-1.5l1.9,1.1
			c0-0.1,0.1-0.1,0.1-0.2l-1.9-1.1l2.1,0.6l0.1-0.3l-2.1-0.6h2.2c0-0.1,0-0.2,0-0.2l0,0h-2.3l2.2-0.6c0-0.1,0-0.2,0-0.2L25,23.9
			l2-1.1l-0.1-0.2l-2,1.1l1.7-1.7l-0.2-0.2l-1.6,1.6l1.1-2l-0.2-0.1l-1.2,2l0.6-2.3L24.9,21l-0.6,2.3V21H24v2.4L23.4,21z M41,41
			l-5.8-5.9L35,35.3l5.8,5.8L41,41z M39,28.7c-0.3,1-0.7,2-1.2,2.9l7.2,4.1c0.8-1.6,1.5-3.2,2-4.9L39,28.7z M47,30.6l0.1-0.3
			l-7.9-2.2c0,0.1-0.1,0.2-0.1,0.3L47,30.6z M37.7,31.9l-0.1,0.2l7.1,4.1l0.1-0.2L37.7,31.9z M37.4,32.3c-0.6,0.9-1.2,1.7-1.9,2.5
			l5.8,5.8c1.2-1.3,2.3-2.7,3.2-4.2L37.4,32.3z M25.8,16.6c-0.4-0.1-0.8-0.1-1.1-0.2v3.2l0.3,0L25.8,16.6z M25.3,19.7l0.2,0.1l0.8-3
			l-0.2-0.1L25.3,19.7z M26.9,12.7l0.4-1.4c-0.8-0.2-1.7-0.3-2.6-0.4v1.5C25.4,12.4,26.2,12.5,26.9,12.7z M27.1,12.7l0.2,0.1
			l0.4-1.4l-0.2-0.1L27.1,12.7z M26.7,16.8l-0.8,3.1l0.3,0.1l1.6-2.7C27.4,17.1,27.1,16.9,26.7,16.8z M26.8,35.7
			c-0.7,0.2-1.4,0.3-2.1,0.3v1.4c0.8,0,1.7-0.1,2.5-0.3L26.8,35.7z M27.4,36.9l0.3-0.1l-0.4-1.3l-0.2,0.1L27.4,36.9z M26.3,31.6
			l-0.8-3.1l-0.2,0.1l0.8,3.1L26.3,31.6z M26.7,31.5c0.3-0.1,0.7-0.3,1-0.4l-1.6-2.8l-0.2,0.1L26.7,31.5z M27.9,31l0.2-0.1l-1.6-2.8
			l-0.2,0.1L27.9,31z M35.5,27.2c0,0.1,0,0.2-0.1,0.3l1.3,0.4c0-0.1,0-0.2,0.1-0.3L35.5,27.2z M37,27.2c0.2-0.8,0.3-1.7,0.3-2.5
			h-1.4c0,0.7-0.1,1.4-0.3,2.1L37,27.2z M35.4,27.7c-0.2,0.7-0.5,1.4-0.8,2l1.2,0.7c0.4-0.7,0.7-1.5,1-2.3L35.4,27.7z M34.4,30
			l-0.1,0.2l1.2,0.7l0.1-0.2L34.4,30z M34.1,30.5c-0.4,0.6-0.8,1.2-1.3,1.7l1,1c0.6-0.6,1.1-1.3,1.5-2L34.1,30.5z M32.5,32.5
			l-0.2,0.2l1,1l0.2-0.2L32.5,32.5z M32.2,32.8c-0.5,0.5-1.1,0.9-1.7,1.3l0.7,1.2c0.7-0.4,1.4-1,2-1.5L32.2,32.8z M28.6,25.3
			c0,0.1,0,0.2-0.1,0.3l3.1,0.8c0-0.1,0.1-0.2,0.1-0.3L28.6,25.3z M31.7,25.8c0.1-0.4,0.1-0.7,0.2-1.1h-3.2c0,0.1,0,0.2,0,0.3
			L31.7,25.8z M28.4,25.8c0,0.1-0.1,0.2-0.1,0.2l2.8,1.6c0.2-0.3,0.3-0.7,0.4-1L28.4,25.8z M28.1,26.4c0,0.1-0.1,0.1-0.1,0.2
			l2.8,1.6l0.1-0.2L28.1,26.4z M27.8,26.8L27.7,27l2.3,2.3c0.2-0.3,0.5-0.6,0.7-0.9L27.8,26.8z M28,21.6l2.7-1.6
			c-0.2-0.3-0.4-0.6-0.7-0.9l-2.3,2.2C27.9,21.4,27.9,21.5,28,21.6z M28.1,21.8l0.1,0.2l2.7-1.6c0-0.1-0.1-0.1-0.1-0.2L28.1,21.8z
			 M28.4,22.4c0,0.1,0.1,0.2,0.1,0.3l3.1-0.8c-0.1-0.3-0.2-0.7-0.4-1L28.4,22.4z M28.6,22.9l0.1,0.3l3.1-0.8l-0.1-0.2L28.6,22.9z
			 M28.7,23.5c0,0.1,0,0.2,0,0.3h3.2c0-0.4-0.1-0.7-0.1-1.1L28.7,23.5z M28.7,24.1v0.3h3.2c0-0.1,0-0.2,0-0.2l0,0L28.7,24.1z
			 M30.1,34.3l-0.2,0.1l0.7,1.2l0.2-0.1L30.1,34.3z M29.7,34.6c-0.6,0.3-1.3,0.6-2,0.8l0.4,1.3c0.8-0.3,1.6-0.6,2.3-1L29.7,34.6z
			 M28.5,30.6c0.3-0.2,0.6-0.4,0.9-0.7L27,27.7c-0.1,0.1-0.1,0.1-0.2,0.2L28.5,30.6z M29.5,29.8l0.2-0.2l-2.3-2.3l-0.2,0.2
			L29.5,29.8z M27.5,21l2.2-2.2l-0.2-0.2l-2.2,2.2L27.5,21z M29.4,18.4c-0.3-0.3-0.6-0.5-0.9-0.7l-1.6,2.7l0.2,0.2L29.4,18.4z
			 M28.2,17.5L28,17.4l-1.6,2.7l0.2,0.1L28.2,17.5z M29.8,13.8l0.7-1.3c-0.8-0.4-1.6-0.7-2.4-1l-0.4,1.4
			C28.4,13.2,29.1,13.4,29.8,13.8L29.8,13.8z M30,13.9l0.2,0.1l0.8-1.3l-0.2-0.1L30,13.9z M30.5,14.2c0.6,0.4,1.2,0.9,1.7,1.4l1-1
			c-0.6-0.6-1.3-1.1-2-1.6L30.5,14.2z M32.4,15.8l0.2,0.2l1-1l-0.2-0.2L32.4,15.8z M32.9,16.2c0.5,0.5,0.9,1.1,1.3,1.8l1.3-0.7
			c-0.4-0.7-1-1.4-1.5-2.1L32.9,16.2z M34.3,18.2l0.1,0.2l1.3-0.7l-0.1-0.2L34.3,18.2z M34.6,18.8c0.3,0.6,0.6,1.3,0.8,2l1.4-0.4
			c-0.2-0.8-0.5-1.6-0.9-2.4L34.6,18.8z M35.5,21.1c0,0.1,0,0.2,0.1,0.2L37,21c0-0.1,0-0.2-0.1-0.2L35.5,21.1z M35.7,21.7
			c0.2,0.7,0.2,1.4,0.3,2.1h1.4c0-0.8-0.1-1.7-0.3-2.5L35.7,21.7z M35.9,24.1v0.3h1.4v-0.3H35.9z M34.8,35.5
			c-0.8,0.7-1.6,1.4-2.5,1.9l4.1,7.2c1.5-0.9,2.9-2,4.2-3.2L34.8,35.5z M32,37.6l-0.2,0.1l4.1,7.2l0.2-0.1L32,37.6z M31.6,37.8
			c-0.9,0.5-1.9,0.9-2.9,1.2l2.1,8c1.7-0.5,3.3-1.2,4.9-2L31.6,37.8z M28.3,39.2L28,39.2l2.1,8l0.2-0.1L28.3,39.2z M27.8,39.3
			c-1,0.2-2.1,0.4-3.1,0.4V48c1.8,0,3.6-0.3,5.3-0.7L27.8,39.3z M24.7,31.9c0.4,0,0.7-0.1,1.1-0.2L25,28.6h-0.3L24.7,31.9z
			 M24.3,19.5v-3.1H24v3.1H24.3L24.3,19.5z M24,12.3h0.3v-1.5H24V12.3z M24.7,8.6c1.1,0,2.1,0.2,3.2,0.4l2-7.7
			c-1.7-0.4-3.5-0.6-5.2-0.6V8.6z M28.1,9.1l0.2,0.1l2-7.7l-0.2-0.1L28.1,9.1z M28.7,9.3c1,0.3,2,0.7,2.9,1.3l4-6.9
			c-1.5-0.8-3.2-1.5-4.9-2L28.7,9.3z M31.9,10.6l0.2,0.1l4-6.9l-0.2-0.1L31.9,10.6z M32.4,11c0.9,0.6,1.7,1.3,2.5,2l5.7-5.7
			c-1.3-1.2-2.7-2.3-4.2-3.2L32.4,11z M35.1,13.1l0.2,0.2L41,7.6l-0.2-0.2L35.1,13.1z M35.6,13.6c0.7,0.8,1.4,1.6,1.9,2.5l7-4
			c-0.9-1.5-2-2.9-3.2-4.2L35.6,13.6z M37.6,16.3l0.1,0.2l7-4l-0.1-0.2L37.6,16.3z M37.9,16.9c0.5,0.9,0.9,1.9,1.2,2.9l7.8-2.1
			c-0.5-1.7-1.2-3.3-2-4.9L37.9,16.9z M39.1,20.1l0.1,0.2l7.8-2.1l0-0.2L39.1,20.1z M39.3,20.7c0.2,1,0.4,2.1,0.4,3.1h8.2
			c0-1.8-0.3-3.5-0.7-5.2L39.3,20.7z M39.7,24.7c0,1-0.2,2.1-0.4,3.1l7.9,2.1c0.4-1.7,0.6-3.5,0.7-5.2H39.7z M24.3,48v-8.3H24V48
			H24.3L24.3,48z M24,0.7v7.9h0.3V0.7L24,0.7L24,0.7z"/>
	</g>
</g>
</svg>
