<svg xmlns="http://www.w3.org/2000/svg" viewBox="0 0 48.5 48.5"><defs><style>.cls-1{fill:#fbb03b;fill-rule:evenodd;}</style></defs><title>자산 3</title><g id="레이어_2" data-name="레이어 2"><g id="Vector_Graphics" data-name="Vector Graphics"><path class="cls-1" d="M37.63,27.47A14.18,14.18,0,0,0,38,24.6H48.5a24.45,24.45,0,0,1-.73,5.59ZM38,23.9A14.36,14.36,0,0,0,37.66,21l10.11-2.71a24.45,24.45,0,0,1,.73,5.59Zm-.54-3.56a14,14,0,0,0-1.09-2.69l9-5.22a24.06,24.06,0,0,1,2.16,5.2ZM36,17a13.89,13.89,0,0,0-1.76-2.32l7.37-7.37a24.91,24.91,0,0,1,3.43,4.47Zm-2.25-2.83a14.4,14.4,0,0,0-2.31-1.79l5.2-9a24.46,24.46,0,0,1,4.47,3.43Zm-2.91-2.14a13.42,13.42,0,0,0-2.7-1.14l2.69-10a24.27,24.27,0,0,1,5.2,2.16ZM27.5,10.74a13.79,13.79,0,0,0-2.9-.39V0a24.45,24.45,0,0,1,5.59.73Zm-3.6-.4a13.88,13.88,0,0,0-2.91.37L18.31.73A24.45,24.45,0,0,1,23.9,0Zm-3.59.55A13.3,13.3,0,0,0,17.59,12L12.43,3.07A24.06,24.06,0,0,1,17.63.91ZM17,12.36a13.49,13.49,0,0,0-2.33,1.79l-7.3-7.3a24.46,24.46,0,0,1,4.47-3.43Zm-2.83,2.28A14,14,0,0,0,12.36,17L3.42,11.82A24.91,24.91,0,0,1,6.85,7.35ZM12,17.59a13.3,13.3,0,0,0-1.12,2.72l-10-2.68a24.06,24.06,0,0,1,2.16-5.2ZM10.71,21a13.88,13.88,0,0,0-.37,2.91H0a24.45,24.45,0,0,1,.73-5.59Zm-.36,3.61a13.79,13.79,0,0,0,.39,2.9l-10,2.69A24.45,24.45,0,0,1,0,24.6Zm.58,3.58a13.42,13.42,0,0,0,1.14,2.7l-9,5.19a24.27,24.27,0,0,1-2.16-5.2Zm1.49,3.3a14.4,14.4,0,0,0,1.79,2.31L6.85,41.15a24.46,24.46,0,0,1-3.43-4.47Zm2.3,2.8A13.89,13.89,0,0,0,17,36l-5.22,9a24.07,24.07,0,0,1-4.47-3.44Zm2.93,2.11a14,14,0,0,0,2.69,1.09L17.63,47.59a24.06,24.06,0,0,1-5.2-2.16ZM21,37.66A13.68,13.68,0,0,0,23.9,38V48.5a24.45,24.45,0,0,1-5.59-.73ZM24.6,38a14.18,14.18,0,0,0,2.87-.39l2.72,10.14a24.45,24.45,0,0,1-5.59.73Zm3.55-.57a14,14,0,0,0,2.67-1.12l5.25,9.1a24.27,24.27,0,0,1-5.2,2.16ZM31.43,36a14,14,0,0,0,2.29-1.77l7.43,7.43a24.07,24.07,0,0,1-4.47,3.44Zm2.79-2.26A14.51,14.51,0,0,0,36,31.43l9.1,5.25a24.46,24.46,0,0,1-3.43,4.47Zm11.21,2.35-9.1-5.25a14,14,0,0,0,1.12-2.67l10.14,2.72A24.27,24.27,0,0,1,45.43,36.07ZM30.25,27.31a7,7,0,0,0,.4-1l3.64,1a10.47,10.47,0,0,1-.79,1.89Zm.59-1.66a6,6,0,0,0,.13-1h3.78a10.56,10.56,0,0,1-.28,2ZM31,23.9a6,6,0,0,0-.13-1l3.66-1a10.34,10.34,0,0,1,.25,2Zm-.32-1.73a6.49,6.49,0,0,0-.4-1l3.31-1.91a11.05,11.05,0,0,1,.77,1.91Zm-.75-1.59a8.58,8.58,0,0,0-.65-.84L32,17a10,10,0,0,1,1.24,1.64Zm-1.14-1.33a7.27,7.27,0,0,0-.84-.65l1.93-3.35a10.55,10.55,0,0,1,1.62,1.27Zm-1.45-1a7,7,0,0,0-1-.41l1-3.76a10.74,10.74,0,0,1,1.91.81Zm-1.66-.59a7.17,7.17,0,0,0-1-.14V13.61a10.65,10.65,0,0,1,2.06.29Zm-1.75-.14a7.17,7.17,0,0,0-1,.14l-1-3.79a10.85,10.85,0,0,1,2.07-.26Zm-1.73.32a6.53,6.53,0,0,0-1,.41l-2-3.41a10.16,10.16,0,0,1,1.93-.79Zm-1.59.76a7.27,7.27,0,0,0-.84.65L17,16.46a10.2,10.2,0,0,1,1.65-1.27Zm-1.33,1.14a6.5,6.5,0,0,0-.65.84l-3.41-2A10.2,10.2,0,0,1,16.46,17Zm-1,1.45a5.6,5.6,0,0,0-.4,1l-3.81-1a10.9,10.9,0,0,1,.8-1.93Zm-.59,1.66a7.17,7.17,0,0,0-.14,1H13.61a10.85,10.85,0,0,1,.26-2.07Zm-.14,1.75a7.17,7.17,0,0,0,.14,1l-3.76,1a10.65,10.65,0,0,1-.29-2.06Zm.33,1.73a5.93,5.93,0,0,0,.4,1l-3.36,1.94a11.06,11.06,0,0,1-.81-1.91Zm.75,1.59a6.41,6.41,0,0,0,.65.83l-2.72,2.73a10.56,10.56,0,0,1-1.28-1.63Zm1.14,1.33a8.58,8.58,0,0,0,.84.65l-1.91,3.31A10.54,10.54,0,0,1,17,32Zm1.45,1a6.49,6.49,0,0,0,1,.4l-1,3.68a11.05,11.05,0,0,1-1.91-.77Zm1.66.59a6,6,0,0,0,1,.13v3.78a9.64,9.64,0,0,1-2-.25ZM24.6,31a6,6,0,0,0,1-.13l1,3.63a10.35,10.35,0,0,1-2,.28Zm1.73-.32a7,7,0,0,0,1-.4l1.88,3.25a10.47,10.47,0,0,1-1.89.79Zm1.59-.75a8.58,8.58,0,0,0,.84-.65l2.65,2.65a10.92,10.92,0,0,1-1.62,1.25Zm4,1.5-2.66-2.65a7.42,7.42,0,0,0,.65-.83l3.25,1.87A10.29,10.29,0,0,1,31.91,31.4Z"/></g></g></svg>