<svg xmlns="http://www.w3.org/2000/svg" viewBox="0 0 920.14 814.29"><defs><style>.cls-1{fill:#fbb040;}</style></defs><title>자산 1</title><g id="레이어_2" data-name="레이어 2"><g id="Layer_2" data-name="Layer 2"><path class="cls-1" d="M722.31,252.14,666.12,271.3l9.26-3.16L586.46,30.33,324.45,0,160.11,219.88l30.35,81.18,14-9.21L0,425.9V691.3l264.89,123L459.44,656,614.17,783,852.68,673.52l67.46-251.36ZM890,423.82l-220.1,106.4-186-174.75,233.78-79.72ZM654.63,271.76l-2.44,4.29L485.07,333l-23.65-63.25L577.48,65.45ZM334.43,22,562.62,48.4,443.68,257.79,188.66,217ZM186.52,237.67l254.64,40.72,23.09,61.75,7.71-2.63L458.72,342l-10,37.15v1.57L231.68,274l-25.35,16.62Zm57,543.8L18.57,677V451.41l225,123.11ZM253.15,556,27.84,432.72,233.34,298,438.48,398.87Zm193.3,83.4L265.59,792.9V573.18L446.45,419.84ZM602,746,467.23,635.33V389.83l-1.89-.93,4.73-17.62L655.76,545.77Zm233.21-87.5-214.84,104,57.05-212.58L892.24,446.08Z"/></g></g></svg>