<svg xmlns="http://www.w3.org/2000/svg" viewBox="0 0 835.73 922.76"><defs><style>.cls-1{fill:#f8b62d;}.cls-1,.cls-2{stroke:#231815;stroke-miterlimit:10;}.cls-2{fill:#f39800;}</style></defs><title>자산 1</title><g id="레이어_2" data-name="레이어 2"><g id="Layer_1" data-name="Layer 1"><polygon class="cls-1" points="688.5 320.81 834.71 242.17 417.85 0.58 1 234.39 417.85 481.7 539.18 408.6 315.2 267.05 464.52 183.06 688.5 320.81"/><polygon class="cls-1" points="417.85 921.89 417.85 481.7 1 234.39 1 680.8 123.88 750.79 123.88 462.42 259.2 543.92 260.76 830.12 417.85 921.89"/><polygon class="cls-1" points="834.71 679.24 834.71 242.17 688.5 320.81 688.5 578.14 540.73 657.47 539.18 408.6 417.85 481.7 417.85 921.89 834.71 679.24"/><polygon class="cls-2" points="464.52 183.06 464.52 361.42 539.18 408.6 539.63 481.7 688.5 578.14 688.5 320.81 464.52 183.06"/><polygon class="cls-2" points="540.73 657.47 688.5 578.14 539.63 481.7 540.73 657.47"/><polygon class="cls-2" points="464.52 183.06 464.52 361.42 315.2 267.05 464.52 183.06"/><polygon class="cls-2" points="259.9 673 123.88 750.79 123.88 462.42 259.2 543.92 259.9 673"/></g></g></svg>