<svg xmlns="http://www.w3.org/2000/svg" xmlns:xlink="http://www.w3.org/1999/xlink" viewBox="0 0 784.79 921.21"><defs><style>.cls-1,.cls-3,.cls-4,.cls-5,.cls-6{stroke:#231815;stroke-miterlimit:10;}.cls-1{fill:url(#Orange_Yellow);}.cls-2{fill:url(#Orange_Yellow-2);}.cls-3{fill:url(#Orange_Yellow-3);}.cls-4{fill:url(#Orange_Yellow-4);}.cls-5{fill:url(#Orange_Yellow-5);}.cls-6{fill:url(#Orange_Yellow-6);}.cls-7{fill:url(#Orange_Yellow-7);}.cls-8{fill:url(#Orange_Yellow-8);}</style><linearGradient id="Orange_Yellow" x1="0.95" y1="620.54" x2="783.8" y2="620.54" gradientUnits="userSpaceOnUse"><stop offset="0" stop-color="#fff21f"/><stop offset="0.01" stop-color="#ffef1c"/><stop offset="0.1" stop-color="#fddc0d"/><stop offset="0.19" stop-color="#fcd103"/><stop offset="0.28" stop-color="#fccd00"/><stop offset="0.67" stop-color="#f1942e"/><stop offset="0.89" stop-color="#ea652d"/><stop offset="1" stop-color="#e5352b"/></linearGradient><linearGradient id="Orange_Yellow-2" x1="392.45" y1="555.8" x2="649.23" y2="555.8" xlink:href="#Orange_Yellow"/><linearGradient id="Orange_Yellow-3" x1="150.19" y1="555.5" x2="392.61" y2="555.5" xlink:href="#Orange_Yellow"/><linearGradient id="Orange_Yellow-4" x1="0.95" y1="440.61" x2="314.64" y2="440.61" xlink:href="#Orange_Yellow"/><linearGradient id="Orange_Yellow-5" x1="69.97" y1="532.74" x2="314.64" y2="532.74" xlink:href="#Orange_Yellow"/><linearGradient id="Orange_Yellow-6" x1="70.61" y1="279.04" x2="783.97" y2="279.04" xlink:href="#Orange_Yellow"/><linearGradient id="Orange_Yellow-7" x1="314.31" y1="413.46" x2="393.11" y2="413.46" xlink:href="#Orange_Yellow"/><linearGradient id="Orange_Yellow-8" x1="147.9" y1="222.61" x2="394.52" y2="222.61" xlink:href="#Orange_Yellow"/></defs><title>자산 1</title><g id="레이어_2" data-name="레이어 2"><g id="Layer_1" data-name="Layer 1"><polygon class="cls-1" points="0.95 880.36 62.56 920.62 783.8 508.33 475.73 320.45 481.19 404.57 567.35 457.65 649.23 508.1 392.45 653.94 150.19 507.24 150.02 603.06 312.47 698.66 0.95 880.36"/><polygon class="cls-2" points="392.61 557.22 567.35 457.65 649.23 508.1 392.45 653.94 392.61 557.22"/><polygon class="cls-3" points="150.19 507.24 225.97 457.06 392.61 557.22 392.45 653.94 150.19 507.24"/><polygon class="cls-4" points="0.95 880.36 2.41 36.49 71.25 0.86 70.61 370.98 239.02 269.43 314.64 320.18 70.47 456.8 69.97 745.3 142.57 705.24 236.02 653.67 312.47 698.66 0.95 880.36"/><polygon class="cls-5" points="150.19 507.24 314.5 400.84 314.64 320.18 70.47 456.8 69.97 745.3 142.57 705.24 150.19 507.24"/><polygon class="cls-6" points="783.8 508.33 783.97 410.7 71.25 0.86 70.61 370.98 144.18 326.62 150.85 125.04 393.11 269.7 392.61 557.22 471.78 512.11 475.73 320.45 783.8 508.33"/><polygon class="cls-7" points="314.31 510.16 314.64 320.18 393.11 269.7 392.61 557.22 314.31 510.16"/><polygon class="cls-8" points="147.9 213.95 316.05 320.18 394.52 269.7 150.85 125.04 147.9 213.95"/></g></g></svg>